<svg width="20" height="20" viewBox="0 0 20 20" fill="none" xmlns="http://www.w3.org/2000/svg">
<path d="M18 0H2C0.89543 0 0 0.89543 0 2V18C0 19.1046 0.89543 20 2 20H18C19.1046 20 20 19.1046 20 18V2C20 0.89543 19.1046 0 18 0Z" fill="#1F524B"/>
<path fill-rule="evenodd" clip-rule="evenodd" d="M15.52 3.61035C15.92 3.79035 15.93 4.5099 15.52 4.8999C14.33 6.0399 13.06 8.2799 11.96 10.3999C10.87 12.4899 10.07 14.7 9.52998 16.04C9.38998 16.4 9.06002 16.47 8.57002 16.5C8.11002 16.5 7.80003 16.4601 7.58003 16.1401C6.22003 14.0401 5.95997 13.6499 5.26997 12.9399C5.19997 12.8599 4.70996 12.4301 4.63996 12.3501C3.78996 11.6501 4.25999 11.3399 4.66999 10.9399C5.03999 10.6499 5.74996 10.6501 6.13996 11.0601C6.20996 11.1401 6.68997 11.5799 6.76997 11.6499C7.29997 12.1999 7.75996 12.8303 8.38996 14.0103C8.80996 12.8503 9.18999 11.6503 9.91999 10.2603C11.04 8.11026 12.2901 5.46031 13.7401 4.07031C14.1501 3.67031 15 3.3001 15.52 3.6001V3.61035Z" fill="white"/>
</svg>