<svg width="20" height="20" viewBox="0 0 20 20" fill="none" xmlns="http://www.w3.org/2000/svg">
<path d="M18 0H6C4.9 0 4 0.9 4 2V14C4 15.1 4.9 16 6 16H18C19.1 16 20 15.1 20 14V2C20 0.9 19.1 0 18 0ZM9.76 11.28L7.69 9.2C7.31 8.81 7.31 8.19 7.69 7.8C8.08 7.41 8.71 7.41 9.1 7.8L10.46 9.17L14.88 4.71C15.27 4.32 15.9 4.32 16.29 4.71C16.67 5.1 16.67 5.72 16.29 6.11L11.16 11.28C10.79 11.68 10.15 11.68 9.76 11.28ZM1 4C0.45 4 0 4.45 0 5V18C0 19.1 0.9 20 2 20H15C15.55 20 16 19.55 16 19C16 18.45 15.55 18 15 18H3C2.45 18 2 17.55 2 17V5C2 4.45 1.55 4 1 4Z" fill="#757575"/>
</svg>