<svg width="20" height="20" viewBox="0 0 20 20" fill="none" xmlns="http://www.w3.org/2000/svg">
<path d="M17.4352 10.99L17.4252 11.01C17.4652 10.68 17.5052 10.34 17.5052 10C17.5052 9.66 17.4752 9.34 17.4352 9.01L17.4452 9.03L19.8852 7.11L17.4552 2.89L14.5852 4.05L14.5952 4.06C14.0752 3.66 13.5052 3.32 12.8852 3.06H12.8952L12.4352 0H7.56523L7.12523 3.07H7.13523C6.51523 3.33 5.94523 3.67 5.42523 4.07L5.43523 4.06L2.55523 2.89L0.115234 7.11L2.55523 9.03L2.56523 9.01C2.52523 9.34 2.49523 9.66 2.49523 10C2.49523 10.34 2.52523 10.68 2.57523 11.01L2.56523 10.99L0.465235 12.64L0.135235 12.9L2.56523 17.1L5.44523 15.95L5.42523 15.91C5.95523 16.32 6.52523 16.66 7.15523 16.92H7.12523L7.57523 20H12.4252C12.4252 20 12.4552 19.82 12.4852 19.58L12.8652 16.93H12.8552C13.4752 16.67 14.0552 16.33 14.5852 15.92L14.5652 15.96L17.4452 17.11L19.8752 12.91C19.8752 12.91 19.7352 12.79 19.5452 12.65L17.4352 10.99ZM9.99523 13.5C8.06523 13.5 6.49523 11.93 6.49523 10C6.49523 8.07 8.06523 6.5 9.99523 6.5C11.9252 6.5 13.4952 8.07 13.4952 10C13.4952 11.93 11.9252 13.5 9.99523 13.5Z" fill="#757575"/>
</svg>
