<svg width="20" height="20" viewBox="0 0 20 20" fill="none" xmlns="http://www.w3.org/2000/svg">
<path d="M17.2728 0.90918H2.72736C1.72321 0.90918 0.90918 1.72321 0.90918 2.72736V17.2728C0.90918 18.277 1.72321 19.091 2.72736 19.091H17.2728C18.277 19.091 19.091 18.277 19.091 17.2728V2.72736C19.091 1.72321 18.277 0.90918 17.2728 0.90918Z" fill="white"/>
<path d="M1.81818 17.2727V2.72727H0V17.2727H1.81818ZM2.72727 18.1818C2.22727 18.1818 1.81818 17.7727 1.81818 17.2727H0C0 18.7818 1.21818 20 2.72727 20V18.1818ZM17.2727 18.1818H2.72727V20H17.2727V18.1818ZM18.1818 17.2727C18.1818 17.7727 17.7727 18.1818 17.2727 18.1818V20C18.7818 20 20 18.7818 20 17.2727H18.1818ZM18.1818 2.72727V17.2727H20V2.72727H18.1818ZM17.2727 1.81818C17.7727 1.81818 18.1818 2.22727 18.1818 2.72727H20C20 1.21818 18.7818 0 17.2727 0V1.81818ZM2.72727 1.81818H17.2727V0H2.72727V1.81818ZM1.81818 2.72727C1.81818 2.22727 2.22727 1.81818 2.72727 1.81818V0C1.21818 0 0 1.21818 0 2.72727H1.81818Z" fill="#BDBDBD"/>
</svg>
